<?xml version="1.0" standalone="no"?>
<!DOCTYPE svg PUBLIC "-//W3C//DTD SVG 20010904//EN"
 "http://www.w3.org/TR/2001/REC-SVG-20010904/DTD/svg10.dtd">
<svg version="1.0" xmlns="http://www.w3.org/2000/svg"
 width="2096.000000pt" height="2096.000000pt" viewBox="0 0 2096.000000 2096.000000"
 preserveAspectRatio="xMidYMid meet">
<metadata>
Created by potrace 1.16, written by Peter Selinger 2001-2019
</metadata>
<g transform="translate(0.000000,2096.000000) scale(0.100000,-0.100000)"
fill="#ffffff" stroke="none">
<path d="M11845 19168 c-20 -34 -25 -60 -49 -273 -8 -71 -22 -184 -30 -250
-22 -165 -25 -188 -36 -286 -5 -47 -15 -100 -21 -118 -18 -52 -6 -160 52 -451
25 -126 43 -221 59 -315 6 -38 16 -86 21 -105 5 -19 12 -53 14 -75 2 -22 8
-56 14 -75 6 -19 9 -42 6 -51 -3 -8 2 -35 10 -59 8 -23 15 -64 15 -90 0 -59
15 -73 140 -134 121 -59 132 -59 125 -3 -4 23 -10 60 -15 82 -5 22 -14 63 -20
90 -5 28 -21 102 -35 165 -36 160 -52 248 -70 375 -9 61 -19 134 -24 163 -4
29 -5 55 -1 57 4 2 25 -13 48 -33 22 -20 55 -48 73 -62 48 -36 121 -101 224
-198 50 -47 158 -141 240 -209 83 -69 161 -135 175 -147 14 -12 52 -42 85 -66
33 -24 79 -63 102 -87 23 -24 49 -43 57 -43 34 0 55 -35 66 -110 17 -122 30
-238 39 -355 5 -60 17 -173 26 -251 l18 -141 73 -77 c41 -42 78 -76 83 -76 5
0 11 12 14 28 7 33 -8 277 -28 462 -28 254 -37 361 -32 374 6 14 95 28 317 51
80 8 172 18 206 21 l61 6 6 -128 c4 -71 9 -262 12 -424 6 -361 12 -477 26
-502 9 -18 18 -11 92 68 45 48 103 113 129 146 41 51 46 61 38 86 -11 35 -38
411 -50 705 -8 205 -11 232 -30 262 -12 19 -92 98 -178 177 -86 78 -287 271
-447 428 -159 157 -321 315 -360 350 -330 306 -603 570 -974 941 -126 126
-203 189 -230 189 -9 0 -25 -15 -36 -32z m235 -494 c25 -26 105 -100 179 -166
74 -66 222 -207 330 -313 217 -214 296 -287 389 -364 34 -28 62 -56 62 -62 0
-22 103 -135 206 -226 60 -53 177 -159 259 -237 83 -78 173 -160 200 -183 33
-27 47 -44 40 -51 -5 -5 -39 -12 -75 -16 -36 -3 -121 -12 -190 -20 -69 -8
-160 -17 -203 -21 l-77 -7 -48 45 c-26 25 -71 64 -101 87 -29 23 -70 59 -91
79 -21 20 -71 63 -111 96 -39 33 -117 101 -173 151 -56 50 -128 113 -161 140
-33 26 -96 79 -140 117 -44 39 -109 95 -145 126 -168 146 -264 238 -276 266
-10 25 -9 60 7 205 26 243 51 400 64 400 6 0 31 -21 55 -46z"/>
<path d="M9186 17969 c-9 -13 -16 -38 -16 -55 0 -31 69 -350 110 -504 34 -130
60 -232 81 -315 11 -44 27 -105 36 -135 22 -79 114 -310 135 -342 10 -15 25
-46 33 -69 9 -24 21 -50 29 -59 7 -8 29 -44 48 -80 19 -36 81 -146 138 -245
57 -99 122 -217 146 -263 23 -45 47 -89 53 -96 18 -21 189 -369 196 -399 6
-24 51 -67 69 -67 4 0 38 -21 77 -47 39 -27 88 -59 109 -73 45 -29 224 -151
355 -243 50 -35 128 -89 175 -122 47 -32 121 -85 165 -117 44 -32 100 -72 125
-87 25 -16 105 -70 178 -120 73 -50 150 -95 170 -101 73 -20 353 -40 678 -49
183 -5 339 -13 348 -18 25 -14 -298 -334 -470 -465 -98 -75 -145 -96 -260
-119 -59 -11 -178 -41 -263 -66 -86 -25 -314 -85 -506 -133 -193 -48 -420
-109 -505 -134 -85 -25 -211 -59 -280 -76 -221 -54 -229 -57 -247 -95 -15 -31
-15 -35 5 -67 12 -18 33 -55 46 -82 13 -26 34 -53 47 -60 22 -11 279 -409 346
-536 38 -71 74 -110 103 -110 10 0 40 -15 67 -33 28 -19 70 -42 94 -51 24 -10
49 -22 56 -27 6 -6 44 -27 85 -48 40 -21 161 -86 270 -144 108 -59 201 -107
206 -107 14 0 103 121 147 200 20 36 44 72 54 81 10 8 22 26 26 40 4 13 28 55
54 92 25 38 50 76 56 85 14 25 87 140 121 191 16 24 43 67 59 97 17 29 49 76
73 103 24 27 55 66 70 87 l27 38 170 2 c94 1 211 7 260 13 50 6 162 15 250 21
88 6 207 15 265 20 58 6 188 17 290 25 367 29 537 45 633 60 98 15 100 16 170
74 40 32 151 135 247 228 209 202 436 414 467 434 13 9 99 90 193 181 126 123
170 172 170 190 0 13 9 48 20 78 12 30 26 80 31 110 6 30 17 67 25 81 7 15 16
46 20 70 4 24 17 65 30 91 13 26 24 58 24 70 0 13 13 50 30 83 16 33 30 69 30
80 0 22 24 93 44 134 7 14 23 62 36 106 12 44 33 98 46 120 12 22 27 59 33 81
9 34 16 43 39 47 15 2 95 36 177 74 83 38 212 93 289 123 76 30 140 60 143 67
17 44 -22 89 -164 189 -103 73 -369 285 -538 430 -55 47 -113 92 -128 100 -24
13 -70 15 -275 13 -136 -1 -267 -2 -292 -1 -72 2 -174 -17 -212 -41 -20 -12
-71 -60 -114 -107 -42 -47 -118 -128 -169 -180 -111 -115 -154 -163 -269 -300
-96 -113 -364 -400 -375 -400 -3 0 -58 41 -121 92 -134 108 -245 213 -620 589
-278 278 -361 349 -503 434 -151 88 -489 248 -847 400 -113 48 -248 107 -300
132 -52 25 -169 78 -260 118 -91 40 -178 80 -195 88 -16 9 -77 37 -135 62 -58
25 -112 50 -120 56 -8 5 -35 18 -60 29 -25 11 -67 31 -95 45 -58 28 -321 146
-410 183 -33 13 -75 35 -95 47 -19 12 -46 26 -60 30 -14 4 -59 25 -100 46 -41
22 -77 39 -81 39 -4 0 -72 31 -151 68 -253 122 -272 130 -309 137 -31 6 -39 3
-53 -16z m709 -553 c183 -90 360 -176 393 -190 33 -14 177 -80 319 -147 142
-67 278 -129 303 -139 25 -10 77 -32 115 -50 39 -17 84 -38 100 -45 17 -7 125
-57 240 -110 116 -54 251 -115 300 -137 336 -148 581 -260 675 -309 19 -10 35
-24 35 -31 0 -15 16 -15 -735 -1 l-535 9 -130 48 c-71 27 -155 61 -185 78 -30
16 -93 46 -140 67 -47 22 -166 78 -265 126 -387 188 -442 214 -495 233 -30 12
-86 34 -125 50 -68 29 -71 32 -107 98 -20 38 -46 99 -58 137 -35 109 -99 372
-106 434 l-7 56 38 -6 c21 -3 187 -80 370 -171z m230 -916 c145 -71 267 -130
271 -130 5 0 27 -9 49 -20 87 -43 442 -199 467 -205 36 -9 41 -16 71 -105 14
-41 55 -147 91 -235 36 -88 66 -165 66 -171 0 -14 -71 -21 -360 -34 -124 -5
-265 -12 -313 -15 l-88 -6 -13 32 c-7 18 -35 68 -61 113 -68 117 -169 298
-222 396 -61 114 -84 154 -168 295 -91 155 -107 189 -92 204 6 6 18 11 25 11
8 0 133 -58 277 -130z m5157 -319 c13 -6 43 -28 68 -51 81 -74 162 -141 202
-166 21 -14 41 -31 44 -39 8 -20 -33 -119 -71 -175 -33 -48 -121 -203 -176
-310 l-34 -65 -140 -11 c-77 -7 -250 -17 -385 -24 -135 -6 -292 -16 -350 -21
-58 -5 -167 -14 -244 -19 -76 -6 -159 -15 -183 -19 -36 -7 -46 -6 -50 6 -3 8
-2 18 3 22 12 8 98 103 164 181 30 36 87 99 125 141 130 143 200 222 215 244
22 32 165 183 234 246 l59 54 101 6 c174 9 394 9 418 0z m-2959 -88 c26 -3 47
-11 47 -17 0 -7 -12 -28 -26 -47 -14 -19 -39 -59 -55 -89 -16 -30 -48 -84 -69
-120 -22 -36 -94 -164 -161 -285 -67 -121 -169 -299 -227 -395 -58 -96 -119
-199 -135 -228 -27 -49 -51 -72 -62 -60 -3 2 -15 40 -29 84 -13 43 -69 183
-124 309 -124 285 -322 802 -322 841 0 13 73 14 558 14 306 -1 578 -4 605 -7z
m308 -71 c24 -26 76 -76 114 -112 145 -134 372 -337 430 -385 33 -27 98 -87
145 -131 47 -45 117 -106 155 -136 95 -73 96 -87 8 -160 -37 -31 -90 -72 -118
-91 -27 -19 -98 -81 -156 -138 -92 -91 -252 -218 -285 -227 -20 -5 -36 89 -44
268 -5 96 -9 176 -9 177 -1 1 -13 14 -28 28 -37 33 -61 32 -119 -7 -39 -27
-50 -41 -57 -73 -14 -64 -2 -142 28 -185 24 -35 26 -44 23 -131 l-3 -94 -135
2 c-74 1 -205 6 -290 12 -85 6 -231 11 -323 12 -93 0 -175 3 -183 6 -31 11 -7
66 92 212 35 51 64 99 64 107 0 8 46 92 101 187 56 94 116 199 134 232 18 33
53 94 78 135 55 91 146 249 178 310 33 63 141 230 150 230 3 0 26 -21 50 -48z
m-1391 -583 c0 -6 45 -111 100 -234 105 -237 164 -391 155 -406 -4 -5 -34 12
-68 36 -90 66 -290 209 -359 258 -33 23 -90 63 -127 89 -36 27 -79 56 -95 65
-16 10 -49 34 -75 54 -25 19 -72 50 -104 68 -57 32 -66 51 -24 50 49 -1 327
14 392 21 110 12 205 11 205 -1z m3998 -267 c10 -7 8 -19 -7 -58 -11 -27 -32
-89 -47 -139 -15 -49 -33 -103 -40 -120 -60 -140 -86 -215 -109 -305 -15 -58
-30 -108 -34 -113 -4 -4 -24 -1 -44 8 -57 24 -181 18 -178 -9 0 -3 18 -29 40
-56 55 -69 57 -83 24 -122 -67 -80 -332 -337 -665 -647 -33 -31 -59 -48 -63
-42 -3 6 -4 14 -2 19 6 10 -44 400 -63 487 -10 50 -26 159 -40 290 -7 55 -16
129 -21 165 -11 79 -37 284 -46 363 -3 31 -2 57 3 57 5 0 151 -106 324 -235
173 -129 323 -235 332 -235 10 0 28 17 42 38 13 20 31 43 40 51 9 7 16 19 16
26 0 7 -59 55 -132 105 -135 95 -261 192 -383 294 -38 32 -89 66 -111 76 -43
19 -60 35 -46 43 10 7 122 14 402 27 192 8 366 20 510 33 75 8 286 6 298 -1z
m-1464 -221 c3 -43 11 -92 16 -107 5 -16 14 -65 19 -109 6 -44 21 -163 35
-265 13 -102 29 -246 36 -320 18 -216 29 -307 55 -434 36 -170 32 -266 -12
-283 -29 -11 -121 47 -219 140 -52 49 -111 102 -132 117 -74 56 -148 136 -185
200 -21 36 -55 84 -75 107 -32 37 -45 43 -97 52 -102 17 -302 29 -347 20 -49
-9 -176 0 -184 13 -3 5 14 28 38 51 24 23 96 92 160 154 63 61 132 119 152
127 20 8 36 19 36 24 0 5 15 23 33 39 17 17 113 107 213 199 346 323 382 353
430 354 19 0 22 -7 28 -79z m-736 -1100 c14 -1 -63 -71 -78 -71 -16 0 -307
-267 -464 -425 l-79 -80 -86 -16 c-87 -17 -106 -16 -97 5 2 6 37 83 76 171 92
204 130 303 130 337 0 43 17 76 42 81 17 3 459 1 556 -2z m375 -243 c62 -57
141 -126 176 -153 58 -45 62 -49 45 -62 -10 -7 -36 -13 -58 -13 -40 0 -377
-34 -636 -64 -69 -8 -152 -18 -185 -21 l-60 -6 105 102 c118 115 296 263 384
321 l59 38 29 -18 c16 -11 80 -66 141 -124z m-1263 17 c0 -10 -149 -304 -174
-343 -13 -21 -31 -45 -38 -53 -33 -33 -200 -280 -333 -494 -27 -44 -69 -106
-93 -138 -24 -32 -49 -70 -55 -85 -24 -54 -100 -162 -119 -168 -12 -4 -24 0
-32 12 -27 37 -279 171 -366 194 -22 6 -42 16 -46 22 -9 15 52 70 225 201 74
56 180 145 236 197 56 52 120 111 144 130 24 19 114 95 200 169 86 73 199 164
251 202 53 37 116 88 140 113 41 42 60 54 60 41z m-490 -174 c0 -5 -33 -31
-73 -59 -40 -28 -96 -71 -123 -95 -106 -96 -230 -197 -254 -208 -14 -6 -37
-18 -51 -25 -14 -7 -29 -10 -33 -6 -4 4 -11 7 -14 8 -4 0 -14 3 -22 7 -8 3
-24 7 -35 9 -12 2 -21 12 -23 27 -2 13 -10 31 -18 38 -12 12 -14 12 -14 -6 0
-26 43 -76 79 -91 17 -7 28 -17 25 -24 -11 -28 -237 -212 -343 -279 l-28 -17
-59 86 c-32 48 -66 99 -74 114 -8 15 -33 48 -55 75 -31 37 -40 57 -41 89 0 22
-4 55 -9 72 l-7 31 84 12 c45 7 151 28 233 46 83 19 181 39 219 45 38 6 77 15
86 20 31 17 419 120 500 133 44 7 50 7 50 -2z"/>
<path d="M13572 16581 c-18 -11 -17 -38 3 -91 12 -33 15 -61 11 -105 -11 -110
-38 -239 -77 -369 -23 -74 -39 -149 -39 -178 0 -45 4 -52 43 -89 52 -49 79
-61 111 -49 32 12 58 96 91 295 14 83 32 175 41 205 8 30 18 114 21 186 7 149
14 134 -90 176 -72 29 -94 33 -115 19z"/>
<path d="M8215 11503 c-62 -8 -78 -15 -127 -61 -95 -89 -130 -207 -92 -313 23
-62 89 -139 153 -177 l46 -27 533 2 c292 1 532 -1 532 -4 0 -11 -97 -111 -725
-747 -341 -345 -622 -632 -625 -636 -6 -10 -1150 -1167 -1720 -1740 -659 -662
-1836 -1852 -1889 -1910 -118 -128 -164 -230 -141 -318 15 -63 31 -90 87 -152
65 -73 126 -100 224 -100 60 0 85 5 125 25 52 26 218 188 771 755 164 168 371
379 459 470 316 323 804 818 1169 1185 204 205 429 435 500 511 72 76 182 191
245 255 63 64 192 195 285 290 94 96 317 323 496 504 275 280 592 605 1083
1112 55 57 102 101 104 98 3 -3 7 -250 8 -549 3 -602 -3 -551 71 -662 37 -55
86 -86 176 -110 116 -30 247 42 319 178 l23 43 0 725 c0 399 -2 813 -5 920 -6
223 -12 243 -103 345 -85 96 10 88 -1032 90 -506 1 -933 0 -950 -2z"/>
<path d="M13105 11330 c-746 -4 -845 -7 -887 -21 -126 -44 -238 -148 -302
-279 l-41 -85 -3 -4300 c-2 -3901 -1 -4305 14 -4355 27 -93 96 -209 166 -276
73 -70 95 -83 198 -115 l75 -24 1150 0 c1094 0 1153 1 1205 19 80 26 178 87
232 143 47 48 110 153 130 215 16 49 18 8646 2 8708 -37 146 -173 291 -327
350 l-79 30 -346 -2 c-191 -2 -725 -5 -1187 -8z"/>
<path d="M8190 7481 c-113 -35 -240 -148 -305 -271 l-40 -75 0 -2435 c0 -2233
1 -2439 16 -2478 48 -124 137 -228 245 -284 139 -73 51 -69 1335 -66 l1154 3
79 34 c162 70 294 236 317 399 13 88 4 4788 -9 4827 -40 126 -147 254 -259
311 l-76 39 -1216 2 c-669 1 -1227 -2 -1241 -6z"/>
<path d="M4327 3996 c-122 -51 -211 -129 -285 -254 -75 -125 -72 -96 -72 -740
0 -317 5 -615 10 -661 11 -97 36 -155 107 -248 58 -75 112 -117 218 -169 l80
-39 770 -8 c997 -10 1463 -5 1525 17 88 31 183 91 237 147 44 46 103 179 113
253 11 75 19 1006 11 1211 -6 148 -7 151 -44 230 -21 43 -54 99 -74 123 -47
58 -140 117 -221 142 -62 19 -95 20 -1191 20 l-1126 0 -58 -24z"/>
</g>
</svg>

